<svg xmlns="http://www.w3.org/2000/svg" xmlns:xlink="http://www.w3.org/1999/xlink" version="1.1" style="enable-background:new 0 0 512 512;" xml:space="preserve" width="512" height="512"><rect id="backgroundrect" width="100%" height="100%" x="0" y="0" fill="none" stroke="none"/>
























<g class="currentLayer" style=""><title>Layer 1</title><g id="svg_1" class="" fill="#ffffff" fill-opacity="1">
	<g id="svg_2" fill="#ffffff" fill-opacity="1">
		<path d="M79.94,150.008l47.019-86.187c0.683-1.254,1.041-2.662,1.041-4.087v-25.6c0-9.412,7.654-17.067,17.067-17.067h273.067V0    H145.067c-18.825,0-34.133,15.309-34.133,34.133v23.424l-45.969,84.267c-3.388,6.195-5.205,13.201-5.231,20.309V460.8    c0,28.237,22.963,51.2,51.2,51.2h264.533v-17.067H110.933c-18.825,0-34.133-15.309-34.133-34.133V162.167    C76.817,157.935,77.901,153.737,79.94,150.008z" id="svg_3" fill="#ffffff" fill-opacity="1"/>
	</g>
</g><g id="svg_4" class="" fill="#ffffff" fill-opacity="1">
	<g id="svg_5" fill="#ffffff" fill-opacity="1">
		<path d="M447.044,141.833l-45.978-84.275V34.133H384v23.424l-45.969,84.096c-3.422,6.255-5.231,13.338-5.231,20.48v307.2    c0,23.526,19.14,42.667,42.667,42.667H409.6c23.526,0,42.667-19.14,42.667-42.667V162.099    C452.233,155.034,450.424,148.028,447.044,141.833z M435.2,469.333c0,14.114-11.486,25.6-25.6,25.6h-34.133    c-14.114,0-25.6-11.486-25.6-25.6v-307.2c0-4.292,1.084-8.533,3.14-12.297l39.518-72.303l39.535,72.482    c2.039,3.721,3.123,7.919,3.14,12.117V469.333z" id="svg_6" fill="#ffffff" fill-opacity="1"/>
	</g>
</g><g id="svg_7" class="" fill="#ffffff" fill-opacity="1">
	<g id="svg_8" fill="#ffffff" fill-opacity="1">
		<rect x="119.46700286865234" y="51.20000076293945" width="273.0669860839844" height="17.066999435424805" id="svg_9" fill="#ffffff" fill-opacity="1"/>
	</g>
</g><g id="svg_10" class="" fill="#ffffff" fill-opacity="1">
	<g id="svg_11" fill="#ffffff" fill-opacity="1">
		<path d="M281.6,0h-51.2c-4.71,0-8.533,3.823-8.533,8.533v49.391l-33.391,75.145c-1.178,2.637-0.93,5.692,0.64,8.115    s4.267,3.883,7.151,3.883h51.2c3.371,0,6.426-1.988,7.799-5.069l34.133-76.8c0.486-1.092,0.734-2.27,0.734-3.465v-51.2    C290.133,3.823,286.319,0,281.6,0z M273.067,57.924L241.929,128h-32.529l28.8-64.802c0.486-1.092,0.734-2.27,0.734-3.465V17.067    h34.133V57.924z" id="svg_12" fill="#ffffff" fill-opacity="1"/>
	</g>
</g><g id="svg_19" class="selected" fill="#ffffff" fill-opacity="1">
	<g id="svg_20" fill="#ffffff" fill-opacity="1">
		<path d="M398.566,437.7c-3.337-3.336-8.73-3.336-12.066,0l-42.667,42.667l12.066,12.066l36.634-36.634l36.634,36.634    l12.066-12.066L398.566,437.7z" id="svg_21" fill="#ffffff" fill-opacity="1"/>
	</g>
</g><g id="svg_22" class="" fill="#ffffff" fill-opacity="1">
	<g id="svg_23" fill="#ffffff" fill-opacity="1">
		<path d="M418.133,0C399.309,0,384,15.309,384,34.133v409.6h17.067v-409.6c0-9.412,7.654-17.067,17.067-17.067    S435.2,24.721,435.2,34.133v12.8c0,2.355-1.92,4.267-4.267,4.267s-4.267-1.911-4.267-4.267v-12.8H409.6v12.8    c0,11.759,9.566,21.333,21.333,21.333c11.768,0,21.333-9.574,21.333-21.333v-12.8C452.267,15.309,436.958,0,418.133,0z" id="svg_24" fill="#ffffff" fill-opacity="1"/>
	</g>
</g><g id="svg_28">
</g><g id="svg_29">
</g><g id="svg_30">
</g><g id="svg_31">
</g><g id="svg_32">
</g><g id="svg_33">
</g><g id="svg_34">
</g><g id="svg_35">
</g><g id="svg_36">
</g><g id="svg_37">
</g><g id="svg_38">
</g><g id="svg_39">
</g><g id="svg_40">
</g><g id="svg_41">
</g><g id="svg_42">
</g></g></svg>