<svg xmlns="http://www.w3.org/2000/svg" xmlns:xlink="http://www.w3.org/1999/xlink" version="1.1" style="enable-background:new 0 0 480 480;" xml:space="preserve" width="480" height="480"><rect id="backgroundrect" width="100%" height="100%" x="0" y="0" fill="none" stroke="none"/>


























<g class="currentLayer" style=""><title>Layer 1</title><g id="svg_1" class="" fill="#ffffff" fill-opacity="1">
	<g id="svg_2" fill="#ffffff" fill-opacity="1">
		<path d="M424,239.996H56c-30.913,0.035-55.965,25.087-56,56v176c0,4.418,3.582,8,8,8h464c4.418,0,8-3.582,8-8v-176    C479.965,265.083,454.913,240.032,424,239.996z M248,311.996h168c4.418,0,8,3.582,8,8v40H248V311.996z M248,375.996h176v48H248    V375.996z M232,463.996H16v-120l6.12,2.888c16.423,7.719,35.64,6.584,51.04-3.016l3.112-1.96c12.061-7.576,27.395-7.576,39.456,0    c17.292,10.832,39.252,10.832,56.544,0c12.061-7.576,27.395-7.576,39.456,0c6.163,3.88,13.067,6.433,20.272,7.496V463.996z     M232,333.084c-4.153-0.871-8.122-2.46-11.728-4.696c-17.287-10.847-39.257-10.847-56.544,0c-12.065,7.561-27.391,7.561-39.456,0    c-17.284-10.848-39.252-10.848-56.536,0l-3.112,1.96c-10.761,6.702-24.186,7.488-35.656,2.088L16,326.3v-30.304    c0.026-22.08,17.92-39.974,40-40h176V333.084z M464,463.996H248v-24h184c4.418,0,8-3.582,8-8v-112c0-13.255-10.745-24-24-24H248    v-40h176c22.08,0.026,39.974,17.92,40,40V463.996z" id="svg_3" fill="#ffffff" fill-opacity="1"/>
	</g>
</g><g id="svg_4" class="" fill="#ffffff" fill-opacity="1">
	<g id="svg_5" fill="#ffffff" fill-opacity="1">
		<rect x="80.85470080375671" y="271.9960021972656" width="16" height="16" id="svg_6" fill="#ffffff" fill-opacity="1"/>
	</g>
</g><g id="svg_7" class="" fill="#ffffff" fill-opacity="1">
	<g id="svg_8" fill="#ffffff" fill-opacity="1">
		<rect x="128.8547008037567" y="287.9960021972656" width="16" height="16" id="svg_9" fill="#ffffff" fill-opacity="1"/>
	</g>
</g><g id="svg_10" class="" fill="#ffffff" fill-opacity="1">
	<g id="svg_11" fill="#ffffff" fill-opacity="1">
		<rect x="176" y="271.9960021972656" width="16" height="16" id="svg_12" fill="#ffffff" fill-opacity="1"/>
	</g>
</g><g id="svg_13" class="" fill="#ffffff" fill-opacity="1">
	<g id="svg_14" fill="#ffffff" fill-opacity="1">
		<rect x="32.854700803756714" y="287.9960021972656" width="16" height="16" id="svg_15" fill="#ffffff" fill-opacity="1"/>
	</g>
</g><g id="svg_16" class="" fill="#ffffff" fill-opacity="1">
	<g id="svg_17" fill="#ffffff" fill-opacity="1">
		<path d="M264,127.996h-48c-4.418,0-8,3.582-8,8v88h16v-80h32v80h16v-88C272,131.578,268.418,127.996,264,127.996z" id="svg_18" fill="#ffffff" fill-opacity="1"/>
	</g>
</g><g id="svg_19" class="" fill="#ffffff" fill-opacity="1">
	<g id="svg_20" fill="#ffffff" fill-opacity="1">
		<path d="M251.023,9.675c-2.381-2.779-4.972-5.37-7.751-7.751c-2.994-2.561-7.406-2.561-10.4,0    c-29.863,25.583-33.333,70.53-7.751,100.393c2.381,2.779,4.972,5.37,7.751,7.751c2.994,2.561,7.406,2.561,10.4,0    C273.135,84.486,276.605,39.538,251.023,9.675z M238.08,92.86c-18.78-20.964-18.78-52.7,0-73.664    C256.86,40.16,256.86,71.896,238.08,92.86z" id="svg_21" fill="#ffffff" fill-opacity="1"/>
	</g>
</g><g id="svg_22" class="" fill="#ffffff" fill-opacity="1">
	<g id="svg_23" fill="#ffffff" fill-opacity="1">
		<path d="M392,127.996h-48c-4.418,0-8,3.582-8,8v88h16v-80h32v80h16v-88C400,131.578,396.418,127.996,392,127.996z" id="svg_24" fill="#ffffff" fill-opacity="1"/>
	</g>
</g><g id="svg_25" class="" fill="#ffffff" fill-opacity="1">
	<g id="svg_26" fill="#ffffff" fill-opacity="1">
		<path d="M379.023,9.675c-2.381-2.779-4.972-5.37-7.751-7.751c-2.994-2.561-7.406-2.561-10.4,0    c-29.863,25.583-33.333,70.53-7.751,100.393c2.381,2.779,4.972,5.37,7.751,7.751c2.994,2.561,7.406,2.561,10.4,0    C401.135,84.486,404.605,39.538,379.023,9.675z M366.08,92.86c-18.78-20.964-18.78-52.7,0-73.664    C384.86,40.16,384.86,71.896,366.08,92.86z" id="svg_27" fill="#ffffff" fill-opacity="1"/>
	</g>
</g><g class="" id="svg_49" fill="#ffffff" fill-opacity="1">
	<g id="svg_51" fill="#ffffff" fill-opacity="1">
		<path d="M379.023,9.675c-2.381-2.779-4.972-5.37-7.751-7.751c-2.994-2.561-7.406-2.561-10.4,0    c-29.863,25.583-33.333,70.53-7.751,100.393c2.381,2.779,4.972,5.37,7.751,7.751c2.994,2.561,7.406,2.561,10.4,0    C401.135,84.486,404.605,39.538,379.023,9.675z M366.08,92.86c-18.78-20.964-18.78-52.7,0-73.664    C384.86,40.16,384.86,71.896,366.08,92.86z" id="svg_27" fill="#ffffff" fill-opacity="1"/>
	</g>
</g><g id="svg_28" class="" fill="#ffffff" fill-opacity="1">
	<g id="svg_29" fill="#ffffff" fill-opacity="1">
		<path d="M136,127.996H88c-4.418,0-8,3.582-8,8v88h16v-80h32v80h16v-88C144,131.578,140.418,127.996,136,127.996z" id="svg_30" fill="#ffffff" fill-opacity="1"/>
	</g>
</g><g id="svg_31" class="" fill="#ffffff" fill-opacity="1">
	<g id="svg_32" fill="#ffffff" fill-opacity="1">
		<path d="M123.023,9.675c-2.381-2.779-4.972-5.37-7.751-7.751c-2.994-2.561-7.406-2.561-10.4,0    c-29.863,25.583-33.333,70.53-7.751,100.393c2.381,2.779,4.972,5.37,7.751,7.751c2.994,2.561,7.406,2.561,10.4,0    C145.135,84.486,148.605,39.538,123.023,9.675z M110.08,92.86c-18.78-20.964-18.78-52.7,0-73.664    C128.86,40.16,128.86,71.896,110.08,92.86z" id="svg_33" fill="#ffffff" fill-opacity="1"/>
	</g>
</g><g id="svg_34">
</g><g id="svg_35">
</g><g id="svg_36">
</g><g id="svg_37">
</g><g id="svg_38">
</g><g id="svg_39">
</g><g id="svg_40">
</g><g id="svg_41">
</g><g id="svg_42">
</g><g id="svg_43">
</g><g id="svg_44">
</g><g id="svg_45">
</g><g id="svg_46">
</g><g id="svg_47">
</g><g id="svg_48">
</g></g></svg>