<svg xmlns="http://www.w3.org/2000/svg" xmlns:xlink="http://www.w3.org/1999/xlink" version="1.1" style="enable-background:new 0 0 480.022 480.022;" xml:space="preserve" width="480.0220031738281" height="480.0220031738281"><rect id="backgroundrect" width="100%" height="100%" x="0" y="0" fill="none" stroke="none"/>




























<g class="currentLayer" style=""><title>Layer 1</title><g id="svg_1" class="" fill="#ffffff" fill-opacity="1">
	<g id="svg_2" fill="#ffffff" fill-opacity="1">
		<rect x="48.02299880981445" y="128.00799560546875" width="16" height="16" id="svg_3" fill="#ffffff" fill-opacity="1"/>
	</g>
</g><g id="svg_4" class="" fill="#ffffff" fill-opacity="1">
	<g id="svg_5" fill="#ffffff" fill-opacity="1">
		<rect x="96.02300262451172" y="128.00799560546875" width="16" height="16" id="svg_6" fill="#ffffff" fill-opacity="1"/>
	</g>
</g><g id="svg_7" class="" fill="#ffffff" fill-opacity="1">
	<g id="svg_8" fill="#ffffff" fill-opacity="1">
		<rect x="48.02299880981445" y="208.00799560546875" width="16" height="16" id="svg_9" fill="#ffffff" fill-opacity="1"/>
	</g>
</g><g id="svg_10" class="" fill="#ffffff" fill-opacity="1">
	<g id="svg_11" fill="#ffffff" fill-opacity="1">
		<rect x="96.02300262451172" y="208.00799560546875" width="16" height="16" id="svg_12" fill="#ffffff" fill-opacity="1"/>
	</g>
</g><g id="svg_13" class="" fill="#ffffff" fill-opacity="1">
	<g id="svg_14" fill="#ffffff" fill-opacity="1">
		<path d="M158.4777008037567,321.7174016075134 c5.339,-14.007 1.6630000000000007,-29.853 -9.296,-40.08 c10.908,-10.19 14.581,-25.96 9.296,-39.92 c5.339,-14.007 1.6630000000000007,-29.853 -9.296,-40.08 c10.889,-10.201 14.558,-25.958 9.296,-39.92 c6.266,-16.492 0.03400000000000002,-35.114 -14.896,-44.512 c-4.971,-17.058 -21.07,-28.418 -38.808,-27.384 c-14.095,-10.85 -33.729,-10.85 -47.824,0 c-17.732,-1.026 -33.822,10.332 -38.792,27.384 c-14.924,9.403 -21.149,28.024 -14.88,44.512 c-5.288,13.957 -1.6230000000000002,29.727 9.28,39.92 c-10.954,10.231 -14.622,26.076 -9.28,40.08 c-5.288,13.957 -1.6230000000000002,29.727 9.28,39.92 c-10.954,10.231 -14.622,26.076 -9.28,40.08 c-6.269,16.488 -0.04400000000000003,35.109 14.88,44.512 c4.994,17.042 21.078,28.391000000000002 38.808,27.384 c6.846,5.293 15.258,8.159 23.912,8.144 c8.654,0.015000000000000008 17.066,-2.851 23.912,-8.144 c17.727,0.998 33.806,-10.348 38.808,-27.384 C158.52170080375672,356.82640160751345 164.7467008037567,338.20440160751343 158.4777008037567,321.7174016075134 zM19.141700803756713,158.12540160751342 c-5.255,-10.513 -0.992,-23.294 9.52,-28.549 c0.05000000000000003,-0.025000000000000015 0.101,-0.05000000000000003 0.15200000000000008,-0.07500000000000002 c2.214,-1.137 3.7720000000000002,-3.24 4.216,-5.6880000000000015 c2.363,-11.782 13.57,-19.624 25.448,-17.808 c2.396,0.36200000000000015 4.824,-0.41300000000000014 6.568,-2.096 c8.899000000000001,-8.33 22.733,-8.33 31.632,0 c1.746,1.6790000000000007 4.172,2.453 6.568,2.096 c11.885,-1.83 23.105,6.017 25.464,17.808 c0.4440000000000002,2.449 2.003,4.551 4.216,5.6880000000000015 c10.554,5.171 14.918,17.918 9.747,28.472 c-0.025000000000000015,0.05100000000000003 -0.05000000000000003,0.101 -0.07500000000000002,0.15200000000000008 c-1.141,2.2640000000000002 -1.141,4.936 0,7.2 c3.842,7.613 2.708,16.792 -2.872,23.24 c-7.253,-12.267 -20.721,-19.486 -34.952,-18.736 c-14.095,-10.85 -33.729,-10.85 -47.824,0 c-14.235,-0.7500000000000003 -27.707,6.473 -34.96,18.744 c-5.589,-6.451 -6.72,-15.642 -2.864,-23.256 C20.268700803756715,163.05740160751344 20.274700803756716,160.39040160751344 19.141700803756713,158.12540160751342 zM133.07770080375673,353.87440160751345 c-0.05000000000000003,0.025000000000000015 -0.101,0.05000000000000003 -0.15200000000000008,0.07500000000000002 c-2.214,1.137 -3.7720000000000002,3.239 -4.216,5.6880000000000015 c-2.329,11.794 -13.554,19.647 -25.432,17.792 c-2.396,-0.35600000000000015 -4.821,0.41800000000000015 -6.568,2.096 c-8.899000000000001,8.33 -22.733,8.33 -31.632,0 c-1.478,-1.399 -3.4370000000000003,-2.178 -5.472,-2.176 c-0.36700000000000016,-0.0010000000000000007 -0.7330000000000003,0.02600000000000002 -1.096,0.08000000000000004 c-11.894,1.8570000000000002 -23.136,-6 -25.48,-17.808 c-0.4440000000000002,-2.449 -2.003,-4.551 -4.216,-5.6880000000000015 c-10.554,-5.171 -14.918,-17.918 -9.747,-28.472 c0.025000000000000015,-0.05100000000000003 0.05000000000000003,-0.101 0.07500000000000002,-0.15200000000000008 c1.141,-2.2640000000000002 1.141,-4.936 0,-7.2 c-5.255,-10.513 -0.992,-23.294 9.52,-28.549 c0.05000000000000003,-0.025000000000000015 0.101,-0.05000000000000003 0.15200000000000008,-0.07500000000000002 c2.214,-1.137 3.7720000000000002,-3.24 4.216,-5.6880000000000015 c2.374,-11.773 13.576,-19.605 25.448,-17.792 c2.396,0.35400000000000015 4.82,-0.41900000000000015 6.568,-2.096 c8.899000000000001,-8.33 22.733,-8.33 31.632,0 c1.75,1.6720000000000006 4.173,2.4450000000000003 6.568,2.096 c11.884,-1.826 23.101,6.019 25.464,17.808 c0.4440000000000002,2.448 2.003,4.551 4.216,5.6880000000000015 c10.554,5.171 14.918,17.918 9.747,28.472 c-0.025000000000000015,0.05100000000000003 -0.05000000000000003,0.101 -0.07500000000000002,0.15200000000000008 c-1.141,2.2640000000000002 -1.141,4.936 0,7.2 C147.85170080375673,335.8374016075134 143.58970080375673,348.61940160751345 133.07770080375673,353.87440160751345 zM139.7337008037567,268.58140160751344 c-7.261,-12.263 -20.728,-19.483 -34.96,-18.744 c-14.095,-10.85 -33.729,-10.85 -47.824,0 c-14.223,-0.7360000000000003 -27.681,6.477 -34.944,18.728 c-5.589,-6.451 -6.72,-15.642 -2.864,-23.256 c1.141,-2.2640000000000002 1.141,-4.936 0,-7.2 c-5.255,-10.513 -0.992,-23.294 9.52,-28.549 c0.05000000000000003,-0.025000000000000015 0.101,-0.05000000000000003 0.15200000000000008,-0.07500000000000002 c2.214,-1.137 3.7720000000000002,-3.239 4.216,-5.6880000000000015 c2.37,-11.775 13.575,-19.609 25.448,-17.792 c2.395,0.35100000000000015 4.819,-0.42300000000000015 6.568,-2.096 c8.899000000000001,-8.33 22.733,-8.33 31.632,0 c1.75,1.6720000000000006 4.173,2.4450000000000003 6.568,2.096 c11.885,-1.83 23.105,6.017 25.464,17.808 c0.4440000000000002,2.448 2.003,4.551 4.216,5.6880000000000015 c10.554,5.171 14.918,17.918 9.747,28.472 c-0.025000000000000015,0.05100000000000003 -0.05000000000000003,0.101 -0.07500000000000002,0.15200000000000008 c-1.141,2.2640000000000002 -1.141,4.936 0,7.2 C146.4537008037567,252.93940160751342 145.32170080375673,262.1304016075134 139.7337008037567,268.58140160751344 z" id="svg_15" fill="#ffffff" fill-opacity="1"/>
	</g>
</g><g id="svg_16" class="" fill="#ffffff" fill-opacity="1">
	<g id="svg_17" fill="#ffffff" fill-opacity="1">
		<rect x="48.02299880981445" y="288.00799560546875" width="16" height="16" id="svg_18" fill="#ffffff" fill-opacity="1"/>
	</g>
</g><g id="svg_19" class="" fill="#ffffff" fill-opacity="1">
	<g id="svg_20" fill="#ffffff" fill-opacity="1">
		<rect x="96.87770342826843" y="289.7173972129822" width="16" height="16" id="svg_21" fill="#ffffff" fill-opacity="1"/>
	</g>
</g><g id="svg_22" class="" fill="#ffffff" fill-opacity="1">
	<g id="svg_23" fill="#ffffff" fill-opacity="1">
		<rect x="48.87769961357117" y="336.00799560546875" width="16" height="16" id="svg_24" fill="#ffffff" fill-opacity="1"/>
	</g>
</g><g id="svg_25" class="" fill="#ffffff" fill-opacity="1">
	<g id="svg_26" fill="#ffffff" fill-opacity="1">
		<rect x="96.87770342826843" y="336.86269640922546" width="16" height="16" id="svg_27" fill="#ffffff" fill-opacity="1"/>
	</g>
</g><g id="svg_28" class="" fill="#ffffff" fill-opacity="1">
	<g id="svg_29" fill="#ffffff" fill-opacity="1">
		<path d="M472.91370080375674,131.16340160751344 c-4.687,-5.868 -11.073,-10.142 -18.285,-12.239 l0.008000000000000005,-0.01600000000000001 c-9.744,-2.814 -20.219,-1.461 -28.928,3.736 l-0.8,0.504 v-17.432 c0,-4.418 -3.582,-8 -8,-8 H208.8777008037567 c-4.418,0 -8,3.582 -8,8 v32 c-0.37100000000000016,41.087 19.128,79.824 52.352,104 h-60.352 c-4.418,0 -8,3.582 -8,8 c0.02600000000000002,22.08 17.92,39.974 40,40 h176 c22.08,-0.02600000000000002 39.974,-17.92 40,-40 c0,-4.418 -3.582,-8 -8,-8 h-62.968 c12.44,-8.761 23.267,-19.612000000000002 32,-32.072 c9.867,-0.812 19.578,-2.965 28.864,-6.4 c13.143,-5.055 25.426,-12.109 36.416,-20.912 C482.9007008037567,169.78440160751342 485.4637008037567,146.87440160751342 472.91370080375674,131.16340160751344 zM423.5097008037567,257.7174016075134 c-3.403,9.582 -12.464,15.988 -22.632,16 h-176 c-10.168,-0.012000000000000005 -19.229,-6.418 -22.632,-16 H423.5097008037567 zM408.87770080375674,137.71740160751344 c-0.6520000000000004,46.12 -29.186,87.245 -72.16,104 h-50.592 c-42.344,-17.041 -69.856,-58.36 -69.248,-104 v-24 h192 V137.71740160751344 zM457.2057008037567,169.82940160751343 c-9.711,7.773 -20.56,14.003 -32.168,18.472 c-4.158,1.566 -8.439,2.781 -12.8,3.632 c7.593,-15.624 11.833,-32.664 12.448,-50.024 l9.24,-5.5440000000000005 c9.654,-5.816 22.196,-2.705 28.012,6.949 c0.28200000000000014,0.468 0.544,0.9460000000000003 0.788,1.435 C466.9967008037567,153.36940160751342 464.7007008037567,163.79940160751343 457.2057008037567,169.82940160751343 z" id="svg_30" fill="#ffffff" fill-opacity="1"/>
	</g>
</g><g id="svg_31" class="" fill="#ffffff" fill-opacity="1">
	<g id="svg_32" fill="#ffffff" fill-opacity="1">
		<path d="M432.4127008037567,324.52840160751344 c-6.198,-6.53 -14.945,-10.019 -23.936,-9.547 h0.01600000000000001 l-124.384,6.5600000000000005 c-12.402,-10.705 -28.377,-16.354 -44.752,-15.824 c-31.4,0 -56,17.6 -56,40 c0,22.4 24.6,40 56,40 c16.364,0.522 32.326,-5.126 44.72,-15.824 l124.392,6.5600000000000005 c8.433,0.43000000000000016 16.675,-2.611 22.808,-8.416 C443.6057008037567,356.33640160751344 444.1137008037567,336.8564016075134 432.4127008037567,324.52840160751344 zM420.2777008037567,356.42940160751346 c-2.942,2.787 -6.897,4.248 -10.944,4.04 l-128,-6.744 c-2.462,-0.13 -4.847,0.8820000000000003 -6.464,2.744 c-9.511,9.114 -22.356,13.906 -35.512,13.248 c-21.68,0 -40,-10.992 -40,-24 s18.32,-24 40,-24 c13.145,-0.6490000000000004 25.977,4.143 35.48,13.248 c1.609,1.872 3.999,2.887 6.464,2.744 l128,-6.744 c8.149000000000001,-0.42500000000000016 15.101,5.836 15.526,13.986 c0.2250000000000001,4.311 -1.4460000000000002,8.504 -4.574,11.478 H420.2777008037567 z" id="svg_33" fill="#ffffff" fill-opacity="1"/>
	</g>
</g><g id="svg_34" class="" fill="#ffffff" fill-opacity="1">
	<g id="svg_35" fill="#ffffff" fill-opacity="1">
		<path d="M248.6697008037567,159.89340160751343 l-15.584,3.648 c4.367,16.799 13.434,32.004 26.136,43.832 l11.312,-11.312 C259.96670080375674,186.31940160751344 252.38470080375672,173.77640160751344 248.6697008037567,159.89340160751343 z" id="svg_36" fill="#ffffff" fill-opacity="1"/>
	</g>
</g><g id="svg_37" class="" fill="#ffffff" fill-opacity="1">
	<g id="svg_38" fill="#ffffff" fill-opacity="1">
		<rect x="232.8776957988739" y="129.71739721298218" width="16" height="16" id="svg_39" fill="#ffffff" fill-opacity="1"/>
	</g>
</g><g id="svg_40">
</g><g id="svg_41">
</g><g id="svg_42">
</g><g id="svg_43">
</g><g id="svg_44">
</g><g id="svg_45">
</g><g id="svg_46">
</g><g id="svg_47">
</g><g id="svg_48">
</g><g id="svg_49">
</g><g id="svg_50">
</g><g id="svg_51">
</g><g id="svg_52">
</g><g id="svg_53">
</g><g id="svg_54">
</g></g></svg>