<svg xmlns="http://www.w3.org/2000/svg" xmlns:xlink="http://www.w3.org/1999/xlink" version="1.1" style="enable-background:new 0 0 481.697 481.697;" xml:space="preserve" width="481.6969909667969" height="481.6969909667969"><rect id="backgroundrect" width="100%" height="100%" x="0" y="0" fill="none" stroke="none"/>


























<g class="currentLayer" style=""><title>Layer 1</title><g id="svg_1" class="" fill="#ffffff" fill-opacity="1">
	<g id="svg_2" fill="#ffffff" fill-opacity="1">
		<path d="M479.813,143.243C471.233,61.775,402.505-0.054,320.586,0.001c-81.948-0.217-150.733,61.683-159.128,143.2l15.92,1.664    C185.74,65.776,256.633,8.442,335.721,16.804c79.088,8.362,136.423,79.255,128.061,158.343    c-7.139,67.523-60.476,120.884-127.996,128.054l1.664,15.92C425.329,309.866,489.068,231.123,479.813,143.243z" id="svg_3" fill="#ffffff" fill-opacity="1"/>
	</g>
</g><g id="svg_4" class="" fill="#ffffff" fill-opacity="1">
	<g id="svg_5" fill="#ffffff" fill-opacity="1">
		<path d="M322.341,313.274c-4.181-88.735-79.505-157.28-168.241-153.099c-6.499,0.306-12.973,1.006-19.387,2.097    c-4.361,0.906-7.249,5.07-6.568,9.472c0.252,1.406,0.399,2.828,0.44,4.256c0.001,17.549-14.132,31.825-31.68,32    c-3.235-0.294-6.307,1.472-7.68,4.416c-1.348,2.722-1.038,5.973,0.8,8.392c4.234,5.504,6.54,12.248,6.56,19.192    c0,17.673-14.327,32-32,32c-5.074-0.042-10.063-1.307-14.544-3.688c-3.929-2.021-8.752-0.475-10.774,3.453    c-0.978,1.901-1.155,4.115-0.49,6.147c1.147,3.242,1.758,6.649,1.808,10.088c-0.042,17.531-14.15,31.781-31.68,32    c-4.418,0.047-7.961,3.667-7.914,8.085c0.001,0.111,0.005,0.221,0.01,0.331c4.181,88.735,79.505,157.28,168.241,153.099    C257.978,477.334,326.523,402.01,322.341,313.274z M160.717,463.939c-73.653,0.018-135.43-55.58-143.147-128.827    c22.586-4.374,38.928-24.107,39.016-47.112c0-0.232,0-0.472,0-0.712c2.641,0.472,5.318,0.71,8,0.712    c26.499-0.026,47.974-21.501,48-48c0.007-6.056-1.164-12.055-3.448-17.664c20.543-5.593,34.964-24.027,35.448-45.312    c5.308-0.664,10.651-1.006,16-1.024c79.491,0.093,143.907,64.509,144,144C304.605,399.477,240.193,463.92,160.717,463.939z" id="svg_6" fill="#ffffff" fill-opacity="1"/>
	</g>
</g><g id="svg_7" class="" fill="#ffffff" fill-opacity="1">
	<g id="svg_8" fill="#ffffff" fill-opacity="1">
		<path d="M208.586,216.001c-17.673,0-32,14.327-32,32s14.327,32,32,32s32-14.327,32-32S226.259,216.001,208.586,216.001z     M208.586,264.001c-8.837,0-16-7.163-16-16c0-8.837,7.163-16,16-16s16,7.163,16,16    C224.586,256.837,217.422,264.001,208.586,264.001z" id="svg_9" fill="#ffffff" fill-opacity="1"/>
	</g>
</g><g id="svg_10" class="" fill="#ffffff" fill-opacity="1">
	<g id="svg_11" fill="#ffffff" fill-opacity="1">
		<path d="M112.586,384.001c-13.255,0-24,10.745-24,24s10.745,24,24,24s24-10.745,24-24S125.841,384.001,112.586,384.001z     M112.586,416.001c-4.418,0-8-3.582-8-8s3.582-8,8-8s8,3.582,8,8S117.004,416.001,112.586,416.001z" id="svg_12" fill="#ffffff" fill-opacity="1"/>
	</g>
</g><g id="svg_13" class="" fill="#ffffff" fill-opacity="1">
	<g id="svg_14" fill="#ffffff" fill-opacity="1">
		<rect x="208.58599853515625" y="344.0010070800781" width="16" height="16" id="svg_15" fill="#ffffff" fill-opacity="1"/>
	</g>
</g><g id="svg_16" class="" fill="#ffffff" fill-opacity="1">
	<g id="svg_17" fill="#ffffff" fill-opacity="1">
		<rect x="96.58599853515625" y="312.0010070800781" width="16" height="16" id="svg_18" fill="#ffffff" fill-opacity="1"/>
	</g>
</g><g id="svg_19" class="" fill="#ffffff" fill-opacity="1">
	<g id="svg_20" fill="#ffffff" fill-opacity="1">
		<path d="M312.586,32.001c-17.673,0-32,14.327-32,32s14.327,32,32,32c17.673,0,32-14.327,32-32S330.259,32.001,312.586,32.001z     M312.586,80.001c-8.837,0-16-7.163-16-16s7.163-16,16-16s16,7.163,16,16S321.422,80.001,312.586,80.001z" id="svg_21" fill="#ffffff" fill-opacity="1"/>
	</g>
</g><g id="svg_22" class="" fill="#ffffff" fill-opacity="1">
	<g id="svg_23" fill="#ffffff" fill-opacity="1">
		<path d="M400.586,176.001c-13.255,0-24,10.745-24,24s10.745,24,24,24s24-10.745,24-24S413.841,176.001,400.586,176.001z     M400.586,208.001c-4.418,0-8-3.582-8-8s3.582-8,8-8s8,3.582,8,8S405.004,208.001,400.586,208.001z" id="svg_24" fill="#ffffff" fill-opacity="1"/>
	</g>
</g><g id="svg_25" class="" fill="#ffffff" fill-opacity="1">
	<g id="svg_26" fill="#ffffff" fill-opacity="1">
		<rect x="376.58599853515625" y="112.0009994506836" width="16" height="16" id="svg_27" fill="#ffffff" fill-opacity="1"/>
	</g>
</g><g id="svg_28" class="" fill="#ffffff" fill-opacity="1">
	<g id="svg_29" fill="#ffffff" fill-opacity="1">
		<rect x="320.58599853515625" y="208.00100708007812" width="16" height="16" id="svg_30" fill="#ffffff" fill-opacity="1"/>
	</g>
</g><g id="svg_31" class="" fill="#ffffff" fill-opacity="1">
	<g id="svg_32" fill="#ffffff" fill-opacity="1">
		<path d="M248.586,112.001c-13.255,0-24,10.745-24,24s10.745,24,24,24c13.255,0,24-10.745,24-24S261.841,112.001,248.586,112.001z     M248.586,144.001c-4.418,0-8-3.582-8-8s3.582-8,8-8s8,3.582,8,8S253.004,144.001,248.586,144.001z" id="svg_33" fill="#ffffff" fill-opacity="1"/>
	</g>
</g><g id="svg_34">
</g><g id="svg_35">
</g><g id="svg_36">
</g><g id="svg_37">
</g><g id="svg_38">
</g><g id="svg_39">
</g><g id="svg_40">
</g><g id="svg_41">
</g><g id="svg_42">
</g><g id="svg_43">
</g><g id="svg_44">
</g><g id="svg_45">
</g><g id="svg_46">
</g><g id="svg_47">
</g><g id="svg_48">
</g></g></svg>