<svg xmlns="http://www.w3.org/2000/svg" xmlns:xlink="http://www.w3.org/1999/xlink" version="1.1" enable-background="new 0 0 137.144 137.144" width="137" height="275"><rect id="backgroundrect" width="100%" height="100%" x="0" y="0" fill="none" stroke="none" class="" style=""/>
  
<g class="currentLayer" style=""><title>Layer 1</title><g id="svg_1" class="" fill="#dadada" fill-opacity="1">
    <g id="svg_2" fill="#dadada" fill-opacity="1">
      <path d="m80.14400762939454,27.429 c-7.644,0 -11.911,1.8090000000000002 -15.804,5.429 c-3.894,3.6180000000000003 -2.625,9.81 -2.625,15.143 v13.715 h-13.714 v13.714 h13.715 v34.286 h13.714 v-34.287 h10.286 l3.4290000000000003,-13.714 h-13.716 v-6.8580000000000005 c0,-2.285 0.07900000000000001,-1.404 0,-6.857 c-0.07500000000000001,-4.893 2.963,-6.857 5.679,-6.857 h5.464 l2.572,-12.952 v-0.3340000000000001 c-0.929,-0.126 -1.286,-0.11000000000000001 -3.215,-0.23900000000000002 c-1.928,-0.125 -3.857,-0.18900000000000003 -5.785,-0.18900000000000003 zm29.571,-27.429 h-82.286 c-15.149000000000001,0 -27.429,12.28 -27.429,27.429 v82.287 c0,15.148 12.28,27.429 27.429,27.429 h82.286 c15.148,0 27.429,-12.28 27.429,-27.429 v-82.287 c0,-15.149000000000001 -12.28,-27.429 -27.429,-27.429 zm13.715,102.858 c0,11.361 -9.21,20.572 -20.571,20.572 h-68.573 c-11.361,0 -20.572,-9.211 -20.572,-20.572 v-68.572 c0,-11.362 9.21,-20.572 20.572,-20.572 h68.572 c11.361,0 20.571,9.21 20.571,20.572 v68.572 z" id="svg_3" fill="#dadada" fill-opacity="1"/>
    </g>
  </g><g class="" fill="#66cccc" fill-opacity="1" id="svg_4">
    <g id="svg_6" fill="#66cccc" fill-opacity="1">
      <path d="m80.14400739097596,165.03583876276016 c-7.644,0 -11.911,1.8090000000000002 -15.804,5.429 c-3.894,3.6180000000000003 -2.625,9.81 -2.625,15.143 v13.715 h-13.714 v13.714 h13.715 v34.286 h13.714 v-34.287 h10.286 l3.4290000000000003,-13.714 h-13.716 v-6.8580000000000005 c0,-2.285 0.07900000000000022,-1.404 0,-6.857 c-0.07500000000000002,-4.893 2.963,-6.857 5.679,-6.857 h5.464 l2.572,-12.952 v-0.33400000000001334 c-0.929,-0.126 -1.286,-0.11000000000000022 -3.215,-0.2390000000000002 c-1.928,-0.125 -3.857,-0.18900000000000144 -5.785,-0.18900000000000144 zm29.571,-27.429 h-82.286 c-15.149000000000001,0 -27.429,12.28 -27.429,27.429 v82.287 c0,15.148 12.28,27.429 27.429,27.429 h82.286 c15.148,0 27.429,-12.28 27.429,-27.429 v-82.287 c0,-15.149000000000001 -12.28,-27.429 -27.429,-27.429 zm13.715,102.858 c0,11.361 -9.21,20.572 -20.571,20.572 h-68.573 c-11.361,0 -20.572,-9.211 -20.572,-20.572 v-68.572 c0,-11.362 9.21,-20.572 20.572,-20.572 h68.572 c11.361,0 20.571,9.21 20.571,20.572 v68.572 z" id="svg_3" fill="#66cccc" fill-opacity="1" transform=""/>
    </g>
  </g></g></svg>