<svg xmlns="http://www.w3.org/2000/svg" xmlns:xlink="http://www.w3.org/1999/xlink" version="1.1" enable-background="new 0 0 137.144 137.144" width="138" height="275"><rect id="backgroundrect" width="100%" height="100%" x="0" y="0" fill="none" stroke="none" class="" style=""/>
  
<g class="currentLayer" style=""><title>Layer 1</title><g id="svg_1" class="" fill-opacity="1" fill="#66cccc">
    <g id="svg_2" fill="#66cccc">
      <path d="m110.18744489192963,137.4803261756897 h-82.286 c-15.149000000000001,0 -27.429,12.28 -27.429,27.429 v82.287 c0,15.148 12.28,27.429 27.429,27.429 h82.286 c15.149000000000001,0 27.429,-12.28 27.429,-27.429 v-82.287 c0,-15.149000000000001 -12.28,-27.429 -27.429,-27.429 zm13.715,102.858 c0,11.361 -9.21,20.572 -20.571,20.572 h-68.573 c-11.361,0 -20.572,-9.211 -20.572,-20.572 v-68.572 c0,-11.362 9.21,-20.572 20.572,-20.572 h68.572 c11.361,0 20.571,9.21 20.571,20.572 v68.572 zm-41.2,-75.493 h-26.239 c-5.961,3.5527100000000013e-15 -11.262,1.8820000000000001 -15.906,5.644 c-4.644,3.7640000000000002 -6.966,8.127 -6.966,13.094 c0,5.268 1.858,9.67 5.573,13.207 c3.715,3.5380000000000003 8.513,5.305 14.396,5.305 c1.083,0 1.8960000000000008,-0.03700000000000001 2.438,-0.11300000000000009 c-0.8530000000000006,1.506 -1.2770000000000001,3.123 -1.2770000000000001,4.854 c0,2.409 1.161,4.741 3.483,6.998 h-4.5280000000000005 c-7.122,0 -13.197,1.862 -18.228,5.588 c-5.032,3.724 -7.547,7.996 -7.547,12.811 c0,4.515 2.592,8.147 7.779,10.893 c5.185,2.748 11.532,4.12 19.041,4.12 c7.971,0 14.28,-1.824 18.924,-5.474 c4.644,-3.649 6.966,-7.958 6.966,-12.925 c0,-3.686 -0.6790000000000009,-6.772 -2.032,-9.256 c-1.355,-2.483 -3.7350000000000003,-4.927 -7.14,-7.336 c-1.549,-0.977 -3.096,-2.275 -4.644,-3.895 c-1.549,-1.617 -2.322,-2.952 -2.322,-4.007 c0,-1.354 0.30800000000000033,-2.52 0.929,-3.499 c0.6190000000000007,-0.977 1.974,-2.258 4.063,-3.838 c4.952,-3.686 7.431,-8.127 7.431,-13.319 c0,-3.387 -0.7370000000000007,-6.434 -2.206,-9.144 c-1.471,-2.709 -3.561,-4.552 -6.269,-5.531 h8.359 l5.922,-4.177 zm-17.531,53.842 c1.005,0.6780000000000009 1.702,1.1680000000000001 2.09,1.468 c0.3860000000000004,0.3020000000000003 0.9670000000000006,0.7160000000000006 1.742,1.241 c0.773,0.527 1.335,0.979 1.6840000000000006,1.354 c0.3480000000000005,0.37800000000000034 0.7340000000000007,0.8290000000000006 1.161,1.354 c0.4240000000000003,0.528 0.773,1.036 1.045,1.524 c0.27,0.4900000000000003 0.4830000000000003,1.035 0.6390000000000008,1.6360000000000001 c0.15400000000000016,1.205 0.232,2.071 0.232,2.597 c0,8.88 -6.348,13.319 -19.041,13.319 c-4.954,0 -9.076,-1.335 -12.365,-4.007 c-3.291,-2.67 -4.934,-5.8870000000000005 -4.934,-9.651 c0,-3.612 1.8960000000000008,-6.734 5.689,-9.368 c3.791,-2.633 8.243,-3.951 13.351,-3.951 c2.398,0.15100000000000016 4.566,0.4900000000000003 6.502,1.016 c0.463,0.3030000000000003 1.198,0.791 2.205,1.468 zm0.232,-23.535 c-2.014,2.974 -4.684,4.421 -8.011,4.346 c-3.407,-0.15000000000000016 -6.522,-1.7670000000000003 -9.346,-4.854 c-2.826,-3.084 -4.51,-6.809 -5.05,-11.175 c-0.542,-4.289 0.15400000000000016,-7.902 2.09,-10.836 c1.9340000000000002,-2.935 4.604,-4.3260000000000005 8.011,-4.177 c3.4050000000000002,0.15200000000000016 6.52,1.7320000000000002 9.346,4.741 c2.825,3.011 4.508,6.698 5.05,11.062 c0.6180000000000007,4.291 -0.07900000000000008,7.922 -2.09,10.893 zm37.928,-30.244 h-6.857 v13.715 h-13.714 v6.857 h13.714 v13.715 h6.857 v-13.715 h13.715 v-6.857 h-13.715 v-13.715 z" id="svg_3" fill="#66cccc"/>
    </g>
  </g><g class="" fill-opacity="1" fill="#dadada" id="svg_4">
    <g id="svg_6" fill="#dadada" fill-opacity="1">
      <path d="m109.71500417232514,0.000006198883056640625 h-82.286 c-15.149000000000001,0 -27.429,12.28 -27.429,27.429 v82.287 c0,15.148 12.28,27.429 27.429,27.429 h82.286 c15.149000000000001,0 27.429,-12.28 27.429,-27.429 v-82.287 c0,-15.149000000000001 -12.28,-27.429 -27.429,-27.429 zm13.715,102.858 c0,11.361 -9.21,20.572 -20.571,20.572 h-68.573 c-11.361,0 -20.572,-9.211 -20.572,-20.572 v-68.572 c0,-11.362 9.21,-20.572 20.572,-20.572 h68.572 c11.361,0 20.571,9.21 20.571,20.572 v68.572 zm-41.2,-75.493 h-26.239 c-5.961,3.5527100000000013e-15 -11.262,1.8820000000000001 -15.906,5.644 c-4.644,3.7640000000000002 -6.966,8.127 -6.966,13.094 c0,5.268 1.858,9.67 5.573,13.207 c3.715,3.5380000000000003 8.513,5.305 14.396,5.305 c1.083,0 1.8960000000000008,-0.03700000000000001 2.438,-0.11300000000000013 c-0.8530000000000006,1.506 -1.2770000000000001,3.123 -1.2770000000000001,4.854 c0,2.409 1.161,4.741 3.483,6.998 h-4.5280000000000005 c-7.122,0 -13.197,1.862 -18.228,5.588 c-5.032,3.724 -7.547,7.996 -7.547,12.811 c0,4.515 2.592,8.147 7.779,10.893 c5.185,2.748 11.532,4.12 19.041,4.12 c7.971,0 14.28,-1.824 18.924,-5.474 c4.644,-3.649 6.966,-7.958 6.966,-12.925 c0,-3.686 -0.6790000000000014,-6.772 -2.032,-9.256 c-1.355,-2.483 -3.7350000000000003,-4.927 -7.14,-7.336 c-1.549,-0.977 -3.096,-2.275 -4.644,-3.895 c-1.549,-1.617 -2.322,-2.952 -2.322,-4.007 c0,-1.354 0.3080000000000005,-2.52 0.929,-3.499 c0.619000000000001,-0.977 1.974,-2.258 4.063,-3.838 c4.952,-3.686 7.431,-8.127 7.431,-13.319 c0,-3.387 -0.737000000000001,-6.434 -2.206,-9.144 c-1.471,-2.709 -3.561,-4.552 -6.269,-5.531 h8.359 l5.922,-4.177 zm-17.531,53.842 c1.005,0.6780000000000014 1.702,1.1680000000000001 2.09,1.468 c0.38600000000000056,0.3020000000000003 0.9670000000000006,0.7160000000000006 1.742,1.241 c0.773,0.527 1.335,0.979 1.6840000000000006,1.354 c0.3480000000000008,0.3780000000000005 0.734000000000001,0.8290000000000006 1.161,1.354 c0.4240000000000003,0.528 0.773,1.036 1.045,1.524 c0.27,0.4900000000000003 0.4830000000000003,1.035 0.6390000000000011,1.6360000000000001 c0.15400000000000025,1.205 0.232,2.071 0.232,2.597 c0,8.88 -6.348,13.319 -19.041,13.319 c-4.954,0 -9.076,-1.335 -12.365,-4.007 c-3.291,-2.67 -4.934,-5.8870000000000005 -4.934,-9.651 c0,-3.612 1.8960000000000008,-6.734 5.689,-9.368 c3.791,-2.633 8.243,-3.951 13.351,-3.951 c2.398,0.15100000000000025 4.566,0.4900000000000003 6.502,1.016 c0.463,0.3030000000000003 1.198,0.791 2.205,1.468 zm0.232,-23.535 c-2.014,2.974 -4.684,4.421 -8.011,4.346 c-3.407,-0.15000000000000024 -6.522,-1.7670000000000003 -9.346,-4.854 c-2.826,-3.084 -4.51,-6.809 -5.05,-11.175 c-0.542,-4.289 0.15400000000000025,-7.902 2.09,-10.836 c1.9340000000000002,-2.935 4.604,-4.3260000000000005 8.011,-4.177 c3.4050000000000002,0.15200000000000025 6.52,1.7320000000000002 9.346,4.741 c2.825,3.011 4.508,6.698 5.05,11.062 c0.618000000000001,4.291 -0.07900000000000013,7.922 -2.09,10.893 zm37.928,-30.244 h-6.857 v13.715 h-13.714 v6.857 h13.714 v13.715 h6.857 v-13.715 h13.715 v-6.857 h-13.715 v-13.715 z" id="svg_3" fill="#dadada" fill-opacity="1" transform=""/>
    </g>
  </g></g></svg>