<svg xmlns="http://www.w3.org/2000/svg" xmlns:xlink="http://www.w3.org/1999/xlink" version="1.1" style="enable-background:new 0 0 489.8 489.8;" xml:space="preserve" width="489.8" height="489.8"><rect id="backgroundrect" width="100%" height="100%" x="0" y="0" fill="none" stroke="none"/>
















<g class="currentLayer" style=""><title>Layer 1</title><g id="svg_1" class="" fill-opacity="1" fill="#66cccc">
	<g id="svg_2" fill="#66cccc">
		<path d="M438.2,0H51.6C23.1,0,0,23.2,0,51.6v386.6c0,28.5,23.2,51.6,51.6,51.6h386.6c28.5,0,51.6-23.2,51.6-51.6V51.6    C489.8,23.2,466.6,0,438.2,0z M465.3,438.2c0,14.9-12.2,27.1-27.1,27.1H51.6c-14.9,0-27.1-12.2-27.1-27.1V51.6    c0-14.9,12.2-27.1,27.1-27.1h386.6c14.9,0,27.1,12.2,27.1,27.1V438.2z" id="svg_3" fill="#66cccc"/>
		<path d="M337.4,232.7h-80.3v-80.3c0-6.8-5.5-12.3-12.3-12.3s-12.3,5.5-12.3,12.3v80.3h-80.3c-6.8,0-12.3,5.5-12.3,12.2    c0,6.8,5.5,12.3,12.3,12.3h80.3v80.3c0,6.8,5.5,12.3,12.3,12.3s12.3-5.5,12.3-12.3v-80.3h80.3c6.8,0,12.3-5.5,12.3-12.3    C349.7,238.1,344.2,232.7,337.4,232.7z" id="svg_4" fill="#66cccc"/>
	</g>
</g><g id="svg_5">
</g><g id="svg_6">
</g><g id="svg_7">
</g><g id="svg_8">
</g><g id="svg_9">
</g><g id="svg_10">
</g><g id="svg_11">
</g><g id="svg_12">
</g><g id="svg_13">
</g><g id="svg_14">
</g><g id="svg_15">
</g><g id="svg_16">
</g><g id="svg_17">
</g><g id="svg_18">
</g><g id="svg_19">
</g></g></svg>