<svg xmlns="http://www.w3.org/2000/svg" xmlns:xlink="http://www.w3.org/1999/xlink" version="1.1" enable-background="new 0 0 137.144 137.144" width="138" height="275" style=""><rect id="backgroundrect" width="100%" height="100%" x="0" y="0" fill="none" stroke="none" class="" style=""/>
  
<g class="currentLayer" style=""><title>Layer 1</title><g class="" id="svg_8" fill="#dadada" fill-opacity="1">
    <g id="svg_10" fill="#dadada" fill-opacity="1">
      <path d="m66.71841316522877,70.41206111308037 c-4.7715294156896855,-4.770529514303327 -10.434970868008705,-8.556156163046232 -16.99132425834342,-11.358879749001424 c-6.5573532917210695,-2.800723783182482 -13.436674829848695,-4.2015856254669 -20.63896451576923,-4.2015856254669 c-0.4939512848597457,0 -0.8929119380156937,0.1559846162714987 -1.2008815650132671,0.46195444049636114 c-0.30896952838392977,0.30896952838392977 -0.46195444049636114,0.7079301815398777 -0.46195444049636114,1.2008815650132671 v11.634852531635616 c0,0.49295138347338946 0.15298491211243131,0.8929119380156937 0.46195444049636114,1.1998816636269112 c0.3069697256112186,0.30896952838392977 0.7069302801535227,0.4609545391100053 1.2008815650132671,0.4609545391100053 c10.587955780121135,0 19.607066285050085,3.725632565561559 27.057331514786846,11.17389799252561 c7.448265426964051,7.449265328350407 11.17389799252561,16.468375833279353 11.17389799252561,27.05633161340049 c0,0.4939512848597457 0.15198501072607556,0.8939118394020491 0.46195444049636114,1.1998816636269112 c0.3069697256112186,0.30896952838392977 0.7069302801535227,0.46195444049636114 1.2008815650132671,0.46195444049636114 h11.634852531635616 c0.4919514820870338,0 0.8909121352429815,-0.15298491211243131 1.1998816636269112,-0.46195444049636114 c0.3079696269975742,-0.3069697256112186 0.46195444049636114,-0.7069302801535227 0.46195444049636114,-1.1998816636269112 c0,-7.20328958730689 -1.4008618422844192,-14.082611125434514 -4.2015856254669,-20.63896451576923 c-2.802723585955194,-6.554353587562002 -6.588350234698098,-12.21879494126738 -11.358879749001424,-16.989324455570706 zm-25.579477265753034,11.865829751883796 c-3.7936258598337513,0 -7.02630704192192,1.3378680549440065 -9.701043250423577,4.012604263445662 c-2.6757361098880126,2.6757361098880126 -4.012604263445662,5.908417291976182 -4.012604263445662,9.700043349037221 c0,3.7936258598337513 1.3368681535576505,7.02630704192192 4.012604263445662,9.701043250423577 c2.673736307115301,2.676736011274368 5.90641748920347,4.012604263445662 9.701043250423577,4.012604263445662 c3.7916260570610394,0 7.024307239149209,-1.3358682521712946 9.700043349037221,-4.012604263445662 c2.6747362085016566,-2.6747362085016566 4.012604263445662,-5.907417390589826 4.012604263445662,-9.701043250423577 c0,-3.7226328614024915 -1.3548663785120538,-6.940315522695325 -4.06259933276345,-9.650048279719432 c-2.708732855637752,-2.7067330528650397 -5.926415516930585,-4.06259933276345 -9.650048279719432,-4.06259933276345 zm68.56523786518713,-82.27788547767001 h-82.27788547767001 c-15.1475061019034,0 -27.426295126352123,12.278789024448724 -27.426295126352123,27.426295126352123 v82.27888537905636 c0,15.146506200517042 12.278789024448724,27.426295126352123 27.426295126352123,27.426295126352123 h82.27788547767001 c15.1475061019034,0 27.426295126352123,-12.278789024448724 27.426295126352123,-27.426295126352123 v-82.27888537905636 c0,-15.1475061019034 -12.278789024448724,-27.426295126352123 -27.426295126352123,-27.426295126352123 zm13.713647513869239,102.8478567977807 c0,11.359879650387784 -9.209091768336544,20.56997132011068 -20.568971418724324,20.56997132011068 h-68.56623776657348 c-11.359879650387784,0 -20.56997132011068,-9.2100916697229 -20.56997132011068,-20.56997132011068 v-68.56523786518713 c0,-11.360879551774138 9.209091768336544,-20.56997132011068 20.56997132011068,-20.56997132011068 h68.56523786518713 c11.359879650387784,0 20.568971418724324,9.209091768336544 20.568971418724324,20.56997132011068 v68.56523786518713 zm-53.85168896496213,-64.61362758630916 c-12.348782121493628,-7.204289488693246 -25.82345320402384,-10.808933986505759 -40.425013148976994,-10.808933986505759 c-0.5089498056550819,0 -0.9209091768336549,0.1589843204305659 -1.23787791630843,0.4759530599053417 c-0.3179686408611315,0.3189685422474877 -0.4759530599053417,0.7309279134260607 -0.4759530599053417,1.2388778176947859 v11.997816734882758 c0,0.5099497070414376 0.15798441904421023,0.9209091768336549 0.4759530599053417,1.23787791630843 c0.3169687394747761,0.3189685422474877 0.7289281106533494,0.47695296129169745 1.23787791630843,0.47695296129169745 c8.824129734589576,0 17.26829694236396,1.7138309762137722 25.331501721936803,5.14249283002767 c8.06120497680013,3.428661853813899 14.99852079533639,8.04720635739115 20.806947948676996,13.855633510731757 c5.809427054726962,5.809427054726962 10.427971558304213,12.745742971876863 13.855633510731757,20.80794785006335 c3.428661853813899,8.063204779572843 5.14249283002767,16.50737198734723 5.14249283002767,25.331501721936803 c0,0.5089498056550819 0.15798441904421023,0.9199092754472994 0.4759530599053417,1.23787791630843 c0.3169687394747761,0.3179686408611315 0.7289281106533494,0.4759530599053417 1.23787791630843,0.4759530599053417 h11.998816636269112 c0.5079499042687262,0 0.9199092754472994,-0.15798441904421023 1.23787791630843,-0.4759530599053417 c0.3179686408611315,-0.3169687394747761 0.4759530599053417,-0.7289281106533494 0.4759530599053417,-1.23787791630843 c0,-14.602559846339508 -3.6036445964261574,-28.07723092886972 -10.807934085119403,-40.425013148976994 c-7.205289390079602,-12.346782318720916 -16.982325145866216,-22.124817975893883 -29.330107365973486,-29.33110726735984 z" id="svg_3" fill="#dadada" fill-opacity="1"/>
    </g>
  </g><g class="" fill="#66cccc" fill-opacity="1" id="svg_1">
    <g id="svg_4" fill="#66cccc" fill-opacity="1">
      <path d="m66.71841429771702,208.0188939749807 c-4.7715294156896855,-4.770529514303327 -10.434970868008705,-8.556156163046232 -16.99132425834342,-11.358879749001424 c-6.5573532917210695,-2.800723783182482 -13.436674829848695,-4.2015856254669 -20.63896451576923,-4.2015856254669 c-0.4939512848597521,0 -0.892911938015702,0.1559846162715 -1.2008815650132671,0.46195444049636114 c-0.3089695283839298,0.3089695283839298 -0.46195444049636114,0.7079301815398777 -0.46195444049636114,1.2008815650132671 v11.634852531635616 c0,0.49295138347338946 0.1529849121124355,0.892911938015702 0.46195444049636114,1.1998816636269112 c0.3069697256112188,0.3089695283839298 0.7069302801535301,0.460954539110009 1.2008815650132671,0.460954539110009 c10.587955780121135,0 19.607066285050085,3.725632565561559 27.057331514786846,11.17389799252561 c7.448265426964051,7.449265328350407 11.17389799252561,16.468375833279353 11.17389799252561,27.05633161340049 c0,0.4939512848597521 0.15198501072607787,0.8939118394020565 0.46195444049636114,1.1998816636269112 c0.3069697256112188,0.3089695283839298 0.7069302801535301,0.46195444049636114 1.2008815650132671,0.46195444049636114 h11.634852531635616 c0.4919514820870338,0 0.8909121352429815,-0.1529849121124355 1.1998816636269112,-0.46195444049636114 c0.30796962699757885,-0.3069697256112188 0.46195444049636114,-0.7069302801535301 0.46195444049636114,-1.1998816636269112 c0,-7.20328958730689 -1.4008618422844192,-14.082611125434514 -4.2015856254669,-20.63896451576923 c-2.802723585955194,-6.554353587562002 -6.588350234698098,-12.21879494126738 -11.358879749001424,-16.989324455570706 zm-25.579477265753034,11.865829751883796 c-3.7936258598337513,0 -7.02630704192192,1.3378680549440065 -9.701043250423577,4.012604263445662 c-2.6757361098880126,2.6757361098880126 -4.012604263445662,5.908417291976182 -4.012604263445662,9.700043349037221 c0,3.7936258598337513 1.3368681535576505,7.02630704192192 4.012604263445662,9.701043250423577 c2.673736307115301,2.676736011274368 5.90641748920347,4.012604263445662 9.701043250423577,4.012604263445662 c3.7916260570610394,0 7.024307239149209,-1.3358682521712946 9.700043349037221,-4.012604263445662 c2.6747362085016566,-2.6747362085016566 4.012604263445662,-5.907417390589826 4.012604263445662,-9.701043250423577 c0,-3.7226328614024915 -1.3548663785120538,-6.940315522695325 -4.06259933276345,-9.650048279719432 c-2.708732855637752,-2.7067330528650397 -5.926415516930585,-4.06259933276345 -9.650048279719432,-4.06259933276345 zm68.56523786518713,-82.27788547767001 h-82.27788547767001 c-15.1475061019034,0 -27.426295126352123,12.278789024448724 -27.426295126352123,27.426295126352123 v82.27888537905636 c0,15.146506200517042 12.278789024448724,27.426295126352123 27.426295126352123,27.426295126352123 h82.27788547767001 c15.1475061019034,0 27.426295126352123,-12.278789024448724 27.426295126352123,-27.426295126352123 v-82.27888537905636 c0,-15.1475061019034 -12.278789024448724,-27.426295126352123 -27.426295126352123,-27.426295126352123 zm13.713647513869239,102.8478567977807 c0,11.359879650387784 -9.209091768336544,20.56997132011068 -20.568971418724324,20.56997132011068 h-68.56623776657348 c-11.359879650387784,0 -20.56997132011068,-9.2100916697229 -20.56997132011068,-20.56997132011068 v-68.56523786518713 c0,-11.360879551774138 9.209091768336544,-20.56997132011068 20.56997132011068,-20.56997132011068 h68.56523786518713 c11.359879650387784,0 20.568971418724324,9.209091768336544 20.568971418724324,20.56997132011068 v68.56523786518713 zm-53.85168896496213,-64.61362758630916 c-12.348782121493628,-7.204289488693246 -25.82345320402384,-10.808933986505759 -40.425013148976994,-10.808933986505759 c-0.5089498056550942,0 -0.9209091768336549,0.15898432043056845 -1.23787791630843,0.4759530599053418 c-0.3179686408611315,0.3189685422474947 -0.4759530599053418,0.7309279134260681 -0.4759530599053418,1.2388778176947859 v11.997816734882758 c0,0.5099497070414376 0.1579844190442128,0.9209091768336549 0.4759530599053418,1.23787791630843 c0.316968739474783,0.3189685422474947 0.7289281106533597,0.4769529612917052 1.23787791630843,0.4769529612917052 c8.824129734589576,0 17.26829694236396,1.713830976213781 25.331501721936803,5.14249283002767 c8.06120497680013,3.428661853813899 14.99852079533639,8.04720635739115 20.806947948676996,13.855633510731757 c5.809427054726962,5.809427054726962 10.427971558304213,12.745742971876863 13.855633510731757,20.80794785006335 c3.428661853813899,8.063204779572843 5.14249283002767,16.50737198734723 5.14249283002767,25.331501721936803 c0,0.5089498056550942 0.1579844190442128,0.9199092754472996 0.4759530599053418,1.23787791630843 c0.316968739474783,0.3179686408611315 0.7289281106533597,0.4759530599053418 1.23787791630843,0.4759530599053418 h11.998816636269112 c0.5079499042687337,0 0.9199092754472996,-0.1579844190442128 1.23787791630843,-0.4759530599053418 c0.3179686408611315,-0.316968739474783 0.4759530599053418,-0.7289281106533597 0.4759530599053418,-1.23787791630843 c0,-14.602559846339508 -3.6036445964261574,-28.07723092886972 -10.807934085119403,-40.425013148976994 c-7.205289390079602,-12.346782318720916 -16.982325145866216,-22.124817975893883 -29.330107365973486,-29.33110726735984 z" id="svg_3" fill="#66cccc" fill-opacity="1"/>
    </g>
  </g></g></svg>