<svg xmlns="http://www.w3.org/2000/svg" xmlns:xlink="http://www.w3.org/1999/xlink" version="1.1" enable-background="new 0 0 137.144 137.144" width="138" height="275"><rect id="backgroundrect" width="100%" height="100%" x="0" y="0" fill="none" stroke="none" class="" style=""/>
  
<g class="currentLayer" style=""><title>Layer 1</title><g id="svg_1" class="" fill-opacity="1" fill="#dadada">
    <g id="svg_2" fill="#dadada" fill-opacity="1">
      <path d="m107.382,35.507c-3.367,2.02-6.921,3.419-10.667,4.201-3.429-3.646-7.557-5.471-12.382-5.471-4.699,0-8.765,1.617-11.952,5.08-1.342,1.458-3.809,3.931-3.809,8.684 0,1.562-0.254,5.75 0,6.857-6.921-0.39-14.361-0.989-20.096-4.551-10.5-6.522-11.866-10.96-14.19-16.02-4.012,6.608-5.107,18.014 4.047,26.227-2.881,1.865-8.492-0.645-10.905-2.012-0.214,7.315 13.445,16.376 16.81,17.055-2.138,0.559-6.401,0.336-10.19-0.564 1.079,3.453 5.634,7.158 8.524,9.405 2.888,2.246 6.143,3.404 9.762,3.468-6.667,5.47-13.652,8.205-20.953,8.205-1.333,0-2.667-0.097-4-0.293 7.11,4.689 15.746,7.033 25.905,7.033 6.031,0 11.667-0.977 16.905-2.93 5.238-1.954 9.729-4.558 13.476-7.815 3.746-3.255 6.968-7.017 9.667-11.283 2.698-4.264 4.698-8.709 6-13.333 1.301-4.623 1.953-9.246 1.953-13.871v-2.247c3.3-2.474 6.096-5.469 8.381-8.987-3.238,1.433-6.476,2.345-9.714,2.736 3.681-2.215 6.157-5.406 7.428-9.574zm2.333-35.507h-82.286c-15.149,0-27.429,12.28-27.429,27.429v82.287c0,15.148 12.28,27.429 27.429,27.429h82.286c15.149,0 27.429-12.28 27.429-27.429v-82.287c0-15.149-12.28-27.429-27.429-27.429zm13.715,102.858c0,11.361-9.21,20.572-20.572,20.572h-68.572c-11.361,0-20.572-9.211-20.572-20.572v-68.572c0-11.362 9.21-20.572 20.572-20.572h68.572c11.361,0 20.572,9.21 20.572,20.572v68.572z" id="svg_3" fill="#dadada" fill-opacity="1"/>
    </g>
  </g><g class="" fill-opacity="1" fill="#66cccc" id="svg_4">
    <g id="svg_6" fill="#66cccc" fill-opacity="1">
      <path d="m107.38200113248826,173.11383858394623 c-3.367,2.02 -6.921,3.419 -10.667,4.201 c-3.4290000000000003,-3.646 -7.557,-5.471 -12.382,-5.471 c-4.699,0 -8.765,1.617 -11.952,5.08 c-1.342,1.458 -3.809,3.931 -3.809,8.684000000000001 c0,1.562 -0.254,5.75 0,6.857 c-6.921,-0.39000000000000984 -14.361,-0.989 -20.096,-4.551 c-10.5,-6.522 -11.866,-10.96 -14.19,-16.02 c-4.012,6.6080000000000005 -5.107,18.014 4.047,26.227 c-2.8810000000000002,1.8650000000000002 -8.492,-0.6450000000000191 -10.905,-2.012 c-0.2140000000000004,7.315 13.445,16.376 16.81,17.055 c-2.138,0.559 -6.401,0.3360000000000105 -10.19,-0.5640000000000006 c1.079,3.453 5.634,7.158 8.524000000000001,9.405 c2.888,2.246 6.143,3.404 9.762,3.468 c-6.667,5.47 -13.652000000000001,8.205 -20.953,8.205 c-1.3330000000000002,0 -2.6670000000000007,-0.09700000000000444 -4,-0.2930000000000003 c7.11,4.689 15.746,7.033 25.905,7.033 c6.031,0 11.667,-0.977 16.905,-2.93 c5.238,-1.9540000000000002 9.729,-4.558 13.476,-7.815 c3.746,-3.255 6.968,-7.017 9.667,-11.283 c2.6980000000000004,-4.264 4.698,-8.709 6,-13.333 c1.3010000000000002,-4.623 1.953,-9.246 1.953,-13.871 v-2.247 c3.3,-2.474 6.096,-5.469 8.381,-8.987 c-3.238,1.433 -6.476,2.345 -9.714,2.736 c3.681,-2.215 6.157,-5.406 7.428,-9.574 zm2.333,-35.507 h-82.286 c-15.149000000000001,0 -27.429,12.28 -27.429,27.429 v82.287 c0,15.148 12.28,27.429 27.429,27.429 h82.286 c15.149000000000001,0 27.429,-12.28 27.429,-27.429 v-82.287 c0,-15.149000000000001 -12.28,-27.429 -27.429,-27.429 zm13.715,102.858 c0,11.361 -9.21,20.572 -20.572,20.572 h-68.572 c-11.361,0 -20.572,-9.211 -20.572,-20.572 v-68.572 c0,-11.362 9.21,-20.572 20.572,-20.572 h68.572 c11.361,0 20.572,9.21 20.572,20.572 v68.572 z" id="svg_3" fill="#66cccc" fill-opacity="1"/>
    </g>
  </g></g></svg>